<?xml version="1.0" encoding="UTF-8" standalone="no"?>
<!-- Created with Inkscape (http://www.inkscape.org/) -->

<svg
   xmlns:dc="http://purl.org/dc/elements/1.1/"
   xmlns:cc="http://creativecommons.org/ns#"
   xmlns:rdf="http://www.w3.org/1999/02/22-rdf-syntax-ns#"
   xmlns:svg="http://www.w3.org/2000/svg"
   xmlns="http://www.w3.org/2000/svg"
   xmlns:sodipodi="http://sodipodi.sourceforge.net/DTD/sodipodi-0.dtd"
   xmlns:inkscape="http://www.inkscape.org/namespaces/inkscape"
   width="425.478"
   height="553.64417"
   id="svg2"
   version="1.1"
   inkscape:version="0.48.5 r10040"
   sodipodi:docname="New document 1">
  <defs
     id="defs4" />
  <sodipodi:namedview
     id="base"
     pagecolor="#ffffff"
     bordercolor="#666666"
     borderopacity="1.0"
     inkscape:pageopacity="0.0"
     inkscape:pageshadow="2"
     inkscape:zoom="0.49497475"
     inkscape:cx="538.10981"
     inkscape:cy="-34.962456"
     inkscape:document-units="px"
     inkscape:current-layer="layer1"
     showgrid="false"
     fit-margin-top="0"
     fit-margin-left="0"
     fit-margin-right="0"
     fit-margin-bottom="0"
     inkscape:window-width="944"
     inkscape:window-height="1002"
     inkscape:window-x="0"
     inkscape:window-y="0"
     inkscape:window-maximized="0" />
  <metadata
     id="metadata7">
    <rdf:RDF>
      <cc:Work
         rdf:about="">
        <dc:format>image/svg+xml</dc:format>
        <dc:type
           rdf:resource="http://purl.org/dc/dcmitype/StillImage" />
        <dc:title></dc:title>
      </cc:Work>
    </rdf:RDF>
  </metadata>
  <g
     inkscape:label="Layer 1"
     inkscape:groupmode="layer"
     id="layer1"
     transform="translate(-130.72727,-54.286688)">
    <path
       style="fill:#ffffff;stroke:#000000;stroke-width:8.6154356;stroke-miterlimit:4;stroke-opacity:1;stroke-dasharray:none"
       d="m 291.75712,597.59171 c 47.25282,-10.16213 70.66641,-18.93781 91.55696,-34.31655 12.0592,-8.87749 21.80357,-21.36048 32.96995,-42.23604 13.51015,-25.25725 27.40909,-37.76783 78.40046,-70.56904 37.78972,-24.30898 49.96095,-33.54699 53.20461,-40.38249 1.50725,-3.17632 3.20044,-12.27496 3.76263,-20.21919 1.37954,-19.49406 -2.27673,-32.77103 -20.50809,-74.471 -19.99371,-45.73094 -21.68169,-51.61979 -26.05308,-90.8916 -2.83065,-25.42994 -4.71042,-32.29782 -12.73117,-46.514 -2.89763,-5.13585 -7.98857,-16.85414 -11.31322,-26.04064 -6.81207,-18.82281 -17.32805,-40.46389 -32.23901,-66.34544 -5.56766,-9.66397 -10.123,-18.38709 -10.123,-19.38473 0,-0.99761 -1.49502,-3.30888 -3.32227,-5.13612 -3.13717,-3.13718 -3.91844,-3.18318 -14.02293,-0.82597 -20.11492,4.69249 -117.65096,44.35592 -131.40671,53.43707 -11.3005,7.46026 -12.24755,11.75616 -12.30563,55.81948 l -0.0512,38.76946 5.57708,18.22827 c 6.71858,21.95916 10.00797,41.70451 8.38701,50.345 -1.62982,8.68769 -10.92406,17.28548 -26.84804,24.83624 -13.47527,6.38962 -20.71625,11.70403 -20.71625,15.20438 0,1.12381 3.19654,8.93639 7.10339,17.36127 12.90956,27.8386 10.53872,44.87474 -7.02338,50.46767 -6.89923,2.19717 -8.68729,2.08255 -20.15838,-1.29231 -14.14355,-4.1611 -17.82955,-4.54239 -17.82955,-1.84432 0,1.02246 3.83468,12.09162 8.5215,24.59817 14.136,37.7211 14.50467,44.36134 3.17921,57.26032 -9.24765,10.53249 -11.83926,9.22998 -43.73148,-21.97899 -21.86941,-21.4009 -25.21933,-23.19612 -33.04981,-17.71144 -8.89875,6.23294 -8.48573,8.30402 5.24147,26.28395 20.29046,26.57647 49.97783,75.30827 75.9938,124.74374 6.33434,12.03649 13.537,23.47348 16.00593,25.41554 6.64169,5.22436 20.16358,4.56487 53.52911,-2.61069 z"
       id="path3206"
       inkscape:connector-curvature="0" />
  </g>
</svg>
